<svg width="22" height="21" viewBox="0 0 22 21" fill="none" xmlns="http://www.w3.org/2000/svg">
<path d="M2.71857 18.6529L6.04057 17.545L6.622 17.8357C7.95771 18.502 9.44271 18.8571 11 18.8571C16.2014 18.8571 20.4286 14.762 20.4286 10.2143C20.4286 5.66657 16.2014 1.57143 11 1.57143C5.79857 1.57143 1.57143 5.66657 1.57143 10.2143C1.57143 11.9114 2.18429 13.6337 3.311 15.1061L3.85314 15.8133L2.717 18.6513L2.71857 18.6529ZM1.60757 20.68C1.46537 20.7276 1.3125 20.7336 1.16702 20.6972C1.02154 20.6607 0.889536 20.5834 0.78659 20.4743C0.683644 20.3653 0.614061 20.229 0.58606 20.0817C0.55806 19.9343 0.572811 19.7821 0.628571 19.6429L2.06171 16.06C0.754286 14.3471 0 12.298 0 10.2143C0 5.00657 4.71429 0 11 0C17.2857 0 22 5.00657 22 10.2143C22 15.422 17.2857 20.4286 11 20.4286C9.23712 20.4335 7.49745 20.0267 5.91957 19.2406L1.60757 20.6784V20.68Z" fill="black"/>
</svg>
