<svg width="90" height="90" viewBox="0 0 90 90" fill="none" xmlns="http://www.w3.org/2000/svg">
<path d="M79.2625 73.4645C83.8401 67.9568 87.0239 61.4277 88.5445 54.4293C90.0651 47.431 89.8778 40.1693 87.9984 33.2587C86.119 26.348 82.6028 19.9917 77.7473 14.7274C72.8918 9.46308 66.8398 5.44564 60.1032 3.01495C53.3667 0.58426 46.1438 -0.188184 39.0456 0.762966C31.9474 1.71412 25.1827 4.36088 19.3238 8.47935C13.4648 12.5978 8.68401 18.0668 5.38573 24.4238C2.08744 30.7807 0.368744 37.8385 0.375017 45.0001C0.377424 55.4111 4.0462 65.4887 10.7376 73.4645L10.6738 73.5187C10.897 73.7864 11.152 74.0159 11.3815 74.2805C11.6683 74.6088 11.9775 74.918 12.274 75.2367C13.1665 76.2057 14.0845 77.1365 15.0471 78.0099C15.3403 78.2776 15.6431 78.5262 15.9396 78.7812C16.9596 79.661 18.0083 80.4961 19.0952 81.2739C19.2355 81.3695 19.363 81.4938 19.5032 81.5926V81.5544C26.9687 86.8079 35.8745 89.6274 45.0032 89.6274C54.1319 89.6274 63.0377 86.8079 70.5032 81.5544V81.5926C70.6435 81.4938 70.7678 81.3695 70.9112 81.2739C71.995 80.4929 73.0468 79.661 74.0668 78.7812C74.3633 78.5262 74.6661 78.2744 74.9593 78.0099C75.922 77.1333 76.84 76.2057 77.7325 75.2367C78.0289 74.918 78.3349 74.6088 78.625 74.2805C78.8513 74.0159 79.1095 73.7864 79.3326 73.5155L79.2625 73.4645ZM45 19.5001C47.8369 19.5001 50.6102 20.3414 52.969 21.9175C55.3278 23.4936 57.1663 25.7338 58.2519 28.3547C59.3376 30.9757 59.6216 33.8598 59.0682 36.6422C58.5147 39.4246 57.1486 41.9804 55.1426 43.9864C53.1366 45.9924 50.5808 47.3585 47.7983 47.912C45.0159 48.4655 42.1319 48.1814 39.5109 47.0958C36.8899 46.0101 34.6497 44.1716 33.0736 41.8128C31.4975 39.454 30.6563 36.6808 30.6563 33.8439C30.6563 30.0397 32.1675 26.3913 34.8575 23.7013C37.5474 21.0113 41.1958 19.5001 45 19.5001V19.5001ZM19.5223 73.4645C19.5776 69.2792 21.2785 65.284 24.2569 62.3431C27.2353 59.4022 31.2519 57.7523 35.4375 57.7501H54.5625C58.7482 57.7523 62.7647 59.4022 65.7431 62.3431C68.7216 65.284 70.4224 69.2792 70.4777 73.4645C63.487 79.764 54.4103 83.2504 45 83.2504C35.5897 83.2504 26.513 79.764 19.5223 73.4645V73.4645Z" fill="#D9D9D9"/>
</svg>
